<?xml version="1.0" encoding="utf-8"?>
<!-- Generator: Adobe Illustrator 17.0.0, SVG Export Plug-In . SVG Version: 6.00 Build 0)  -->
<!DOCTYPE svg PUBLIC "-//W3C//DTD SVG 1.1//EN" "http://www.w3.org/Graphics/SVG/1.1/DTD/svg11.dtd">
<svg version="1.1" id="图层_1" xmlns="http://www.w3.org/2000/svg" xmlns:xlink="http://www.w3.org/1999/xlink" x="0px" y="0px"
	 width="128px" height="128px" viewBox="0 0 128 128" enable-background="new 0 0 128 128" xml:space="preserve">
<g>
	<path fill="#A4A7A5" d="M122.183,28.329h-3.175v-4.322c0-3.159-2.61-5.729-5.818-5.729H33.986v-1.145
		c0-2.199-1.824-3.982-4.071-3.982H5.817c-2.25,0-4.07,1.784-4.07,3.982v12.556v4.609v76.579c0,2.189,1.82,3.973,4.07,3.973h116.367
		c2.247,0,4.069-1.784,4.069-3.973V32.31C126.252,30.111,124.43,28.329,122.183,28.329z M113.19,21.772
		c1.282,0,2.324,1.002,2.324,2.235v4.322H33.986v-6.557H113.19z M122.759,110.877c0,0.259-0.263,0.479-0.575,0.479H5.817
		c-0.312,0-0.576-0.219-0.576-0.479V34.298v-4.609V17.133c0-0.269,0.258-0.488,0.576-0.488h24.098c0.313,0,0.577,0.224,0.577,0.488
		v11.196c0,1.93,1.564,3.494,3.494,3.494h88.197c0.317,0,0.576,0.219,0.576,0.487V110.877z"/>
	<polygon fill="#A4A7A5" points="65.747,54.119 62.253,54.119 62.253,68.532 47.84,68.532 47.84,72.026 62.253,72.026 
		62.253,86.439 65.747,86.439 65.747,72.026 80.16,72.026 80.16,68.532 65.747,68.532 	"/>
</g>
</svg>
