<?xml version="1.0" encoding="utf-8"?>
<!-- Generator: Adobe Illustrator 17.0.0, SVG Export Plug-In . SVG Version: 6.00 Build 0)  -->
<!DOCTYPE svg PUBLIC "-//W3C//DTD SVG 1.1//EN" "http://www.w3.org/Graphics/SVG/1.1/DTD/svg11.dtd">
<svg version="1.1" id="图层_1" xmlns="http://www.w3.org/2000/svg" xmlns:xlink="http://www.w3.org/1999/xlink" x="0px" y="0px"
	 width="128px" height="128px" viewBox="0 0 128 128" enable-background="new 0 0 128 128" xml:space="preserve">
<g>
	<path fill="#A4A7A5" d="M63.999,32C46.326,32,32,46.328,32,64.001C32,81.673,46.326,96,63.999,96c17.673,0,32-14.327,32-31.999
		C95.999,46.328,81.673,32,63.999,32z M63.999,92.506c-15.718,0-28.505-12.787-28.505-28.505c0-15.719,12.787-28.507,28.505-28.507
		c15.718,0,28.506,12.788,28.506,28.507C92.505,79.719,79.717,92.506,63.999,92.506z"/>
	<path fill="#A4A7A5" d="M108.799,6.4H19.2c-7.069,0-12.8,5.723-12.8,12.782v89.637c0,7.059,5.731,12.781,12.8,12.781h89.599
		c7.069,0,12.801-5.722,12.801-12.781V19.182C121.6,12.123,115.868,6.4,108.799,6.4z M118.106,108.819
		c0,5.121-4.175,9.287-9.307,9.287H19.2c-5.131,0-9.306-4.166-9.306-9.287V19.182c0-5.121,4.175-9.288,9.306-9.288h89.599
		c5.132,0,9.307,4.167,9.307,9.288V108.819z"/>
</g>
</svg>
