<?xml version="1.0" encoding="utf-8"?>
<!-- Generator: Adobe Illustrator 17.0.0, SVG Export Plug-In . SVG Version: 6.00 Build 0)  -->
<!DOCTYPE svg PUBLIC "-//W3C//DTD SVG 1.1//EN" "http://www.w3.org/Graphics/SVG/1.1/DTD/svg11.dtd">
<svg version="1.1" id="图层_1" xmlns="http://www.w3.org/2000/svg" xmlns:xlink="http://www.w3.org/1999/xlink" x="0px" y="0px"
	 width="128px" height="128px" viewBox="0 0 128 128" enable-background="new 0 0 128 128" xml:space="preserve">
<g>
	<path fill="#A4A7A5" d="M127.945,60.011V9.225H95.203H32.687H-0.055v50.786l8.23,9.976v11.727l-8.23,4.687v14.863h32.742h62.516
		h32.742V86.401l-8.23-4.687V69.988L127.945,60.011z M117.986,84.751l6.465,3.682v9.337H95.203H32.687H3.439v-9.337l6.465-3.682
		l1.765-1.005v-2.031V69.988v-1.255l-0.799-0.968l-7.431-9.008V12.719h29.248h62.516h29.248v46.037l-7.431,9.008l-0.799,0.968v1.255
		v11.727v2.031L117.986,84.751z"/>
	<path fill="#A4A7A5" d="M19.341,54.68h89.208V24.129H19.341V54.68z M22.835,27.623h82.22v23.563h-82.22V27.623z"/>
	<rect x="6.428" y="108.086" fill="#A4A7A5" width="3.494" height="10.689"/>
	<rect x="18.821" y="108.086" fill="#A4A7A5" width="3.494" height="10.689"/>
	<rect x="31.215" y="108.086" fill="#A4A7A5" width="3.494" height="10.689"/>
	<rect x="43.608" y="108.086" fill="#A4A7A5" width="3.494" height="10.689"/>
	<rect x="56.001" y="108.086" fill="#A4A7A5" width="3.494" height="10.689"/>
	<rect x="68.395" y="108.086" fill="#A4A7A5" width="3.494" height="10.689"/>
	<rect x="80.788" y="108.086" fill="#A4A7A5" width="3.494" height="10.689"/>
	<rect x="93.181" y="108.086" fill="#A4A7A5" width="3.494" height="10.689"/>
	<rect x="105.575" y="108.086" fill="#A4A7A5" width="3.494" height="10.689"/>
	<rect x="117.968" y="108.086" fill="#A4A7A5" width="3.494" height="10.689"/>
</g>
</svg>
